<svg width="60" height="61" viewBox="0 0 60 61" fill="none" xmlns="http://www.w3.org/2000/svg">
<rect x="7.625" y="40.625" width="42.75" height="15.75" rx="1.375" stroke="black" stroke-width="0.75"/>
<rect x="11.3365" y="47.7981" width="2.05769" height="2.05769" rx="0.175" transform="rotate(-180 11.3365 47.7981)" fill="#C4C4C4" stroke="black" stroke-width="0.25"/>
<rect x="14.7981" y="47.7981" width="2.05769" height="2.05769" rx="0.175" transform="rotate(-180 14.7981 47.7981)" fill="#C4C4C4" stroke="black" stroke-width="0.25"/>
<rect x="14.7981" y="44.3365" width="2.05769" height="2.05769" rx="0.175" transform="rotate(-180 14.7981 44.3365)" fill="#C4C4C4" stroke="black" stroke-width="0.25"/>
<rect x="34.4135" y="54.7212" width="12.4423" height="2.05769" rx="0.175" transform="rotate(-180 34.4135 54.7212)" fill="url(#paint0_linear)" stroke="black" stroke-width="0.25"/>
<rect x="18.2596" y="47.7981" width="2.05769" height="2.05769" rx="0.175" transform="rotate(-180 18.2596 47.7981)" fill="#C4C4C4" stroke="black" stroke-width="0.25"/>
<rect x="18.2596" y="51.2596" width="2.05769" height="2.05769" rx="0.175" transform="rotate(-180 18.2596 51.2596)" fill="#C4C4C4" stroke="black" stroke-width="0.25"/>
<rect x="21.7212" y="51.2596" width="2.05769" height="2.05769" rx="0.175" transform="rotate(-180 21.7212 51.2596)" fill="#C4C4C4" stroke="black" stroke-width="0.25"/>
<rect x="25.1827" y="51.2596" width="2.05769" height="2.05769" rx="0.175" transform="rotate(-180 25.1827 51.2596)" fill="#C4C4C4" stroke="black" stroke-width="0.25"/>
<rect x="40.1827" y="54.7212" width="2.05769" height="2.05769" rx="0.175" transform="rotate(-180 40.1827 54.7212)" fill="#F79A45" stroke="black" stroke-width="0.25"/>
<rect x="43.6442" y="54.7212" width="2.05769" height="2.05769" rx="0.175" transform="rotate(-180 43.6442 54.7212)" fill="#52FF36" stroke="black" stroke-width="0.25"/>
<rect x="43.6442" y="51.2596" width="2.05769" height="2.05769" rx="0.175" transform="rotate(-180 43.6442 51.2596)" fill="#2654F7" stroke="black" stroke-width="0.25"/>
<rect x="47.1058" y="54.7212" width="2.05769" height="2.05769" rx="0.175" transform="rotate(-180 47.1058 54.7212)" fill="#AD00FF" stroke="black" stroke-width="0.25"/>
<rect x="11.3365" y="54.7211" width="2.05769" height="2.05769" rx="0.175" transform="rotate(-180 11.3365 54.7211)" fill="#EB4D4D" stroke="black" stroke-width="0.25"/>
<rect x="14.7981" y="54.7211" width="2.05769" height="2.05769" rx="0.175" transform="rotate(-180 14.7981 54.7211)" fill="#EBFF00" stroke="black" stroke-width="0.25"/>
<rect x="18.2596" y="54.7211" width="2.05769" height="2.05769" rx="0.175" transform="rotate(-180 18.2596 54.7211)" fill="#4EFF10" stroke="black" stroke-width="0.25"/>
<path d="M2.89 16C2.67533 16 2.48867 15.9207 2.33 15.762C2.18067 15.6033 2.106 15.4167 2.106 15.202V6.578C2.106 6.36333 2.18067 6.17667 2.33 6.018C2.48867 5.85933 2.67533 5.78 2.89 5.78H3.268C3.48267 5.78 3.66933 5.85933 3.828 6.018C3.98667 6.17667 4.066 6.36333 4.066 6.578V9.756C4.066 9.83067 4.10333 9.868 4.178 9.868H7.678C7.75267 9.868 7.79 9.83067 7.79 9.756V6.578C7.79 6.36333 7.86933 6.17667 8.028 6.018C8.18667 5.85933 8.37333 5.78 8.588 5.78H8.966C9.18067 5.78 9.36267 5.85933 9.512 6.018C9.67067 6.17667 9.75 6.36333 9.75 6.578V15.202C9.75 15.4167 9.67067 15.6033 9.512 15.762C9.36267 15.9207 9.18067 16 8.966 16H8.588C8.37333 16 8.18667 15.9207 8.028 15.762C7.86933 15.6033 7.79 15.4167 7.79 15.202V11.492C7.79 11.408 7.75267 11.366 7.678 11.366H4.178C4.10333 11.366 4.066 11.408 4.066 11.492V15.202C4.066 15.4167 3.98667 15.6033 3.828 15.762C3.66933 15.9207 3.48267 16 3.268 16H2.89ZM13.1114 16C12.8968 16 12.7101 15.9207 12.5514 15.762C12.3928 15.6033 12.3134 15.4167 12.3134 15.202V6.578C12.3134 6.36333 12.3928 6.17667 12.5514 6.018C12.7101 5.85933 12.8968 5.78 13.1114 5.78H17.8714C18.0861 5.78 18.2728 5.85933 18.4314 6.018C18.5901 6.17667 18.6694 6.36333 18.6694 6.578C18.6694 6.79267 18.5901 6.97933 18.4314 7.138C18.2728 7.28733 18.0861 7.362 17.8714 7.362H14.3994C14.3154 7.362 14.2734 7.404 14.2734 7.488V9.742C14.2734 9.826 14.3154 9.868 14.3994 9.868H17.6334C17.8481 9.868 18.0254 9.94267 18.1654 10.092C18.3148 10.2413 18.3894 10.4187 18.3894 10.624C18.3894 10.8293 18.3148 11.0067 18.1654 11.156C18.0254 11.296 17.8481 11.366 17.6334 11.366H14.3994C14.3154 11.366 14.2734 11.408 14.2734 11.492V14.292C14.2734 14.376 14.3154 14.418 14.3994 14.418H17.8714C18.0861 14.418 18.2728 14.4973 18.4314 14.656C18.5901 14.8053 18.6694 14.9873 18.6694 15.202C18.6694 15.4167 18.5901 15.6033 18.4314 15.762C18.2728 15.9207 18.0861 16 17.8714 16H13.1114ZM23.0173 7.376V10.414C23.0173 10.4887 23.0593 10.526 23.1433 10.526H23.8433C25.5046 10.526 26.3353 9.93333 26.3353 8.748C26.3353 7.69333 25.5653 7.166 24.0253 7.166C23.7453 7.166 23.4513 7.18933 23.1433 7.236C23.0593 7.25467 23.0173 7.30133 23.0173 7.376ZM21.8833 16C21.6686 16 21.482 15.9207 21.3233 15.762C21.1646 15.6033 21.0853 15.4167 21.0853 15.202V6.648C21.0853 6.424 21.16 6.22333 21.3093 6.046C21.4586 5.86867 21.6453 5.77067 21.8693 5.752C22.6626 5.67733 23.428 5.64 24.1653 5.64C25.5373 5.64 26.564 5.89667 27.2453 6.41C27.9266 6.914 28.2673 7.628 28.2673 8.552C28.2673 9.21467 28.0853 9.798 27.7213 10.302C27.3666 10.806 26.886 11.1607 26.2793 11.366C26.27 11.366 26.2653 11.3707 26.2653 11.38C26.2653 11.3987 26.27 11.408 26.2793 11.408C26.7273 11.688 27.11 12.2387 27.4273 13.06L28.2673 15.258C28.3326 15.4353 28.3093 15.6033 28.1973 15.762C28.0946 15.9207 27.95 16 27.7633 16H27.3293C27.0866 16 26.8673 15.9347 26.6713 15.804C26.4753 15.664 26.3353 15.482 26.2513 15.258L25.4673 13.102C25.2993 12.654 25.108 12.36 24.8933 12.22C24.6786 12.08 24.31 12.01 23.7873 12.01H23.1433C23.0593 12.01 23.0173 12.052 23.0173 12.136V15.202C23.0173 15.4167 22.938 15.6033 22.7793 15.762C22.63 15.9207 22.448 16 22.2333 16H21.8833ZM31.0923 16C30.8777 16 30.691 15.9207 30.5323 15.762C30.383 15.6033 30.3083 15.4167 30.3083 15.202V6.578C30.3083 6.36333 30.383 6.17667 30.5323 6.018C30.691 5.85933 30.8777 5.78 31.0923 5.78H31.4003C31.9323 5.78 32.3243 6.01333 32.5763 6.48L36.0343 12.724C36.0343 12.7333 36.039 12.738 36.0483 12.738C36.0577 12.738 36.0623 12.7333 36.0623 12.724V6.578C36.0623 6.36333 36.1417 6.17667 36.3003 6.018C36.459 5.85933 36.6457 5.78 36.8603 5.78H37.1683C37.383 5.78 37.565 5.85933 37.7143 6.018C37.873 6.17667 37.9523 6.36333 37.9523 6.578V15.202C37.9523 15.4167 37.873 15.6033 37.7143 15.762C37.565 15.9207 37.383 16 37.1683 16H36.8603C36.3283 16 35.9363 15.7667 35.6843 15.3L32.2263 9.056C32.2263 9.04667 32.2217 9.042 32.2123 9.042C32.203 9.042 32.1983 9.04667 32.1983 9.056V15.202C32.1983 15.4167 32.119 15.6033 31.9603 15.762C31.8017 15.9207 31.615 16 31.4003 16H31.0923ZM44.0298 7.516L42.7978 11.912C42.7884 11.94 42.7931 11.968 42.8118 11.996C42.8304 12.024 42.8538 12.038 42.8818 12.038H45.2058C45.2338 12.038 45.2571 12.024 45.2758 11.996C45.2944 11.968 45.2991 11.94 45.2898 11.912L44.0578 7.516C44.0578 7.50667 44.0531 7.502 44.0438 7.502C44.0344 7.502 44.0298 7.50667 44.0298 7.516ZM40.4038 16C40.2078 16 40.0538 15.9207 39.9418 15.762C39.8298 15.6033 39.8064 15.4307 39.8718 15.244L42.7698 6.536C42.8538 6.312 42.9891 6.13 43.1758 5.99C43.3718 5.85 43.5864 5.78 43.8198 5.78H44.3238C44.5664 5.78 44.7811 5.85 44.9678 5.99C45.1638 6.13 45.2991 6.312 45.3738 6.536L48.2718 15.244C48.3371 15.4307 48.3138 15.6033 48.2018 15.762C48.0898 15.9207 47.9358 16 47.7398 16H47.2358C47.0118 16 46.8018 15.93 46.6058 15.79C46.4191 15.6407 46.2931 15.454 46.2278 15.23L45.7798 13.648C45.7704 13.5733 45.7191 13.536 45.6258 13.536H42.4618C42.3778 13.536 42.3264 13.5733 42.3078 13.648L41.8598 15.23C41.8038 15.454 41.6778 15.6407 41.4818 15.79C41.2951 15.93 41.0851 16 40.8518 16H40.4038ZM50.7963 16C50.5816 16 50.3949 15.9207 50.2363 15.762C50.0869 15.6033 50.0123 15.4167 50.0123 15.202V6.578C50.0123 6.36333 50.0869 6.17667 50.2363 6.018C50.3949 5.85933 50.5816 5.78 50.7963 5.78H51.1043C51.6363 5.78 52.0283 6.01333 52.2803 6.48L55.7383 12.724C55.7383 12.7333 55.7429 12.738 55.7523 12.738C55.7616 12.738 55.7663 12.7333 55.7663 12.724V6.578C55.7663 6.36333 55.8456 6.17667 56.0043 6.018C56.1629 5.85933 56.3496 5.78 56.5643 5.78H56.8723C57.0869 5.78 57.2689 5.85933 57.4183 6.018C57.5769 6.17667 57.6562 6.36333 57.6562 6.578V15.202C57.6562 15.4167 57.5769 15.6033 57.4183 15.762C57.2689 15.9207 57.0869 16 56.8723 16H56.5643C56.0323 16 55.6403 15.7667 55.3883 15.3L51.9303 9.056C51.9303 9.04667 51.9256 9.042 51.9163 9.042C51.9069 9.042 51.9023 9.04667 51.9023 9.056V15.202C51.9023 15.4167 51.8229 15.6033 51.6643 15.762C51.5056 15.9207 51.3189 16 51.1043 16H50.7963Z" fill="black"/>
<path d="M12.278 32.14C10.8033 32.14 9.632 31.6873 8.764 30.782C7.90533 29.8673 7.476 28.57 7.476 26.89C7.476 25.2287 7.89133 23.9407 8.722 23.026C9.562 22.102 10.7333 21.64 12.236 21.64C12.9267 21.64 13.5053 21.682 13.972 21.766C14.196 21.8033 14.3827 21.9153 14.532 22.102C14.6813 22.2887 14.756 22.4987 14.756 22.732V22.844C14.756 23.04 14.672 23.194 14.504 23.306C14.3453 23.418 14.1727 23.4507 13.986 23.404C13.5287 23.2827 13.0153 23.222 12.446 23.222C11.522 23.222 10.794 23.5393 10.262 24.174C9.73933 24.8087 9.478 25.714 9.478 26.89C9.478 28.0567 9.74867 28.962 10.29 29.606C10.8407 30.2407 11.5733 30.558 12.488 30.558C13.104 30.558 13.6313 30.502 14.07 30.39C14.2567 30.3433 14.4293 30.376 14.588 30.488C14.756 30.6 14.84 30.754 14.84 30.95V31.048C14.84 31.2813 14.7653 31.4913 14.616 31.678C14.476 31.8553 14.2893 31.9627 14.056 32C13.524 32.0933 12.9313 32.14 12.278 32.14ZM23.8843 26.89C23.8843 24.4633 22.9977 23.25 21.2243 23.25C19.451 23.25 18.5643 24.4633 18.5643 26.89C18.5643 29.3167 19.451 30.53 21.2243 30.53C22.9977 30.53 23.8843 29.3167 23.8843 26.89ZM24.6263 30.754C23.7957 31.678 22.6617 32.14 21.2243 32.14C19.787 32.14 18.6483 31.678 17.8083 30.754C16.9777 29.83 16.5623 28.542 16.5623 26.89C16.5623 25.238 16.9777 23.95 17.8083 23.026C18.6483 22.102 19.787 21.64 21.2243 21.64C22.6617 21.64 23.7957 22.102 24.6263 23.026C25.4663 23.95 25.8863 25.238 25.8863 26.89C25.8863 28.542 25.4663 29.83 24.6263 30.754ZM30.5149 27.688C29.3949 27.3147 28.5829 26.862 28.0789 26.33C27.5842 25.798 27.3369 25.154 27.3369 24.398C27.3369 23.5487 27.6215 22.8767 28.1909 22.382C28.7602 21.8873 29.5582 21.64 30.5849 21.64C31.4529 21.64 32.2089 21.738 32.8529 21.934C33.0769 21.9993 33.2542 22.1347 33.3849 22.34C33.5249 22.536 33.5949 22.7553 33.5949 22.998V23.124C33.5949 23.3013 33.5155 23.4413 33.3569 23.544C33.1982 23.6373 33.0349 23.6513 32.8669 23.586C32.1669 23.3153 31.4529 23.18 30.7249 23.18C30.2582 23.18 29.9035 23.2873 29.6609 23.502C29.4182 23.7167 29.2969 24.0153 29.2969 24.398C29.2969 25.07 29.7355 25.5507 30.6129 25.84C31.8729 26.2413 32.7455 26.6987 33.2309 27.212C33.7255 27.7253 33.9729 28.388 33.9729 29.2C33.9729 31.16 32.7642 32.14 30.3469 32.14C29.5909 32.14 28.9049 32.0233 28.2889 31.79C28.0649 31.706 27.8875 31.5613 27.7569 31.356C27.6355 31.1507 27.5749 30.922 27.5749 30.67V30.502C27.5749 30.3247 27.6495 30.1987 27.7989 30.124C27.9482 30.04 28.1022 30.0353 28.2609 30.11C28.8769 30.418 29.5255 30.572 30.2069 30.572C31.3922 30.572 31.9849 30.124 31.9849 29.228C31.9849 28.864 31.8729 28.5653 31.6489 28.332C31.4249 28.0893 31.0469 27.8747 30.5149 27.688ZM37.2633 32C37.0486 32 36.862 31.9207 36.7033 31.762C36.5446 31.6033 36.4653 31.4167 36.4653 31.202V22.578C36.4653 22.3633 36.5446 22.1767 36.7033 22.018C36.862 21.8593 37.0486 21.78 37.2633 21.78H37.8233C38.038 21.78 38.2246 21.8593 38.3833 22.018C38.542 22.1767 38.6213 22.3633 38.6213 22.578V31.202C38.6213 31.4167 38.542 31.6033 38.3833 31.762C38.2246 31.9207 38.038 32 37.8233 32H37.2633ZM42.2412 32C42.0265 32 41.8398 31.9207 41.6812 31.762C41.5318 31.6033 41.4572 31.4167 41.4572 31.202V22.578C41.4572 22.3633 41.5318 22.1767 41.6812 22.018C41.8398 21.8593 42.0265 21.78 42.2412 21.78H42.5492C43.0812 21.78 43.4732 22.0133 43.7252 22.48L47.1832 28.724C47.1832 28.7333 47.1878 28.738 47.1972 28.738C47.2065 28.738 47.2112 28.7333 47.2112 28.724V22.578C47.2112 22.3633 47.2905 22.1767 47.4492 22.018C47.6078 21.8593 47.7945 21.78 48.0092 21.78H48.3172C48.5318 21.78 48.7138 21.8593 48.8632 22.018C49.0218 22.1767 49.1012 22.3633 49.1012 22.578V31.202C49.1012 31.4167 49.0218 31.6033 48.8632 31.762C48.7138 31.9207 48.5318 32 48.3172 32H48.0092C47.4772 32 47.0852 31.7667 46.8332 31.3L43.3752 25.056C43.3752 25.0467 43.3705 25.042 43.3612 25.042C43.3518 25.042 43.3472 25.0467 43.3472 25.056V31.202C43.3472 31.4167 43.2678 31.6033 43.1092 31.762C42.9505 31.9207 42.7638 32 42.5492 32H42.2412ZM52.6026 32C52.3879 32 52.2013 31.9207 52.0426 31.762C51.8839 31.6033 51.8046 31.4167 51.8046 31.202V30.418C51.8046 30.2033 51.8839 30.0167 52.0426 29.858C52.2013 29.6993 52.3879 29.62 52.6026 29.62H53.2466C53.4613 29.62 53.6479 29.6993 53.8066 29.858C53.9653 30.0167 54.0446 30.2033 54.0446 30.418V31.202C54.0446 31.4167 53.9653 31.6033 53.8066 31.762C53.6479 31.9207 53.4613 32 53.2466 32H52.6026Z" fill="black"/>
<path d="M27.5607 40.8C27.5607 40.8 27.2434 39.8122 27.0214 38.4316C26.2759 33.7965 45.2479 37.9579 50.0223 37.9579C54.5276 37.9579 56.6849 34.1684 53.4489 31.8" stroke="black"/>
<defs>
<linearGradient id="paint0_linear" x1="47.2308" y1="56.5769" x2="33.9615" y2="54.8462" gradientUnits="userSpaceOnUse">
<stop offset="0.133948" stop-color="#BE0A97"/>
<stop offset="0.516413" stop-color="#14B6DA"/>
<stop offset="0.9667" stop-color="#001AFF"/>
</linearGradient>
</defs>
</svg>
